<svg width="622" height="427" viewBox="0 0 622 427" fill="none" xmlns="http://www.w3.org/2000/svg">
<path d="M380 759.952C589.363 759.952 759.085 590.23 759.085 380.868C759.085 171.505 589.363 1.7832 380 1.7832C170.638 1.7832 0.916016 171.505 0.916016 380.868C0.916016 590.23 170.638 759.952 380 759.952Z" stroke="#A59B85" stroke-opacity="0.3" stroke-width="1.83133" stroke-dasharray="9.16 9.16"/>
<path d="M379.638 691.318C551.294 691.318 690.449 552.163 690.449 380.507C690.449 208.851 551.294 69.6963 379.638 69.6963C207.982 69.6963 68.8271 208.851 68.8271 380.507C68.8271 552.163 207.982 691.318 379.638 691.318Z" fill="#B7AF9F" fill-opacity="0.1"/>
<path d="M380 626.836C515.844 626.836 625.967 516.712 625.967 380.868C625.967 245.025 515.844 134.901 380 134.901C244.156 134.901 134.033 245.025 134.033 380.868C134.033 516.712 244.156 626.836 380 626.836Z" fill="#D2CDC2" fill-opacity="0.3"/>
</svg>
